<?xml version="1.0" encoding="UTF-8"?>
<!DOCTYPE svg PUBLIC "-//W3C//DTD SVG 1.1//EN" "http://www.w3.org/Graphics/SVG/1.1/DTD/svg11.dtd">
<!-- Creator: CorelDRAW X7 -->
<svg xmlns="http://www.w3.org/2000/svg" xml:space="preserve" width="822px" height="273px" version="1.1" style="shape-rendering:geometricPrecision; text-rendering:geometricPrecision; image-rendering:optimizeQuality; fill-rule:evenodd; clip-rule:evenodd"
viewBox="0 0 783 260"
 xmlns:xlink="http://www.w3.org/1999/xlink">
 <defs>
  <style type="text/css">
   <![CDATA[
    .fil3 {fill:#161616}
    .fil0 {fill:#1AB1AE}
    .fil2 {fill:#A6BFBB}
    .fil4 {fill:#F18D05}
    .fil1 {fill:#F9B367}
   ]]>
  </style>
 </defs>
 <g id="Layer_x0020_1">
  <metadata id="CorelCorpID_0Corel-Layer"/>
  <path class="fil0" d="M46 35c23,-19 53,-28 83,-34 -1,42 0,84 -1,126 -42,1 -85,0 -127,0 8,-33 18,-69 45,-92z"/>
  <path class="fil1" d="M175 37c24,-21 55,-30 85,-36 -1,42 0,85 -1,127 -42,-1 -85,0 -127,0 7,-33 18,-68 43,-91z"/>
  <path class="fil2" d="M263 0c32,7 66,18 89,42 22,23 32,54 38,85 -42,0 -84,0 -127,0 0,-42 0,-85 0,-127z"/>
  <path class="fil3" d="M402 13c7,0 13,0 20,0 -1,64 0,128 0,192 0,11 2,23 12,29 7,6 17,5 26,6 0,7 0,13 -1,20 -14,-2 -30,-4 -41,-14 -13,-11 -16,-29 -16,-45 0,-63 0,-126 0,-188z"/>
  <path class="fil3" d="M615 13c7,0 13,0 20,0 0,27 0,54 0,81 24,-23 69,-17 85,13 11,19 7,41 8,62 -1,24 4,51 -12,71 -20,25 -61,25 -81,1 0,3 0,11 -1,14 -6,1 -12,1 -18,1 -1,-81 0,-162 -1,-243zm44 88c21,-8 47,6 49,29 1,24 0,48 0,72 1,14 -7,28 -20,34 -21,11 -52,-3 -53,-28 0,-25 0,-49 0,-74 0,-15 10,-29 24,-33z"/>
  <path class="fil3" d="M762 56c9,3 16,11 21,20 -7,0 -14,0 -21,1 0,-7 0,-14 0,-21z"/>
  <path class="fil3" d="M503 87c30,-18 76,-1 80,35 5,43 1,85 3,128 0,10 -14,4 -20,6 0,-5 0,-10 0,-15 -19,21 -53,24 -76,7 -25,-19 -22,-66 9,-78 22,-8 45,-11 67,-18 -1,-15 2,-33 -11,-43 -18,-21 -60,-9 -58,22 -6,0 -13,0 -20,0 2,-18 9,-36 26,-44zm5 100c18,-6 38,-9 57,-14 -1,17 5,37 -8,51 -12,16 -38,22 -54,8 -14,-11 -14,-38 5,-45z"/>
  <path class="fil3" d="M763 82c6,0 13,0 19,1 1,57 -1,115 1,172 -7,0 -14,1 -20,1 -1,-58 -1,-116 0,-174z"/>
  <path class="fil4" d="M132 131c42,0 85,0 128,0 -7,32 -18,67 -43,90 -24,22 -55,31 -85,38 0,-43 0,-86 0,-128z"/>
  <path class="fil0" d="M44 167c23,-20 54,-30 84,-35 0,43 0,85 0,127 -42,0 -85,1 -128,0 8,-33 18,-68 44,-92z"/>
  <path class="fil3" d="M276 137c17,17 34,34 51,51 17,-17 34,-34 51,-51 4,8 8,17 1,25 -11,15 -25,27 -38,40 17,17 34,34 51,51 -8,3 -18,8 -25,1 -15,-12 -26,-26 -40,-38 -16,15 -29,35 -51,43 -4,-2 -9,-4 -13,-7 16,-17 34,-33 50,-50 -12,-14 -27,-26 -38,-40 -7,-8 -2,-17 1,-25z"/>
 </g>
</svg>
